<svg xmlns="http://www.w3.org/2000/svg" width="1200" height="500" viewBox="0 0 1200 500" role="img" aria-labelledby="title description">
  <title id="title">Race Engineer de Braking Lab</title>
  <desc id="description">Pack oficial de skills del Race Engineer. Pregunta por tus datos de Braking Lab desde tu agente de IA favorito.</desc>
  <defs>
    <linearGradient id="trace" x1="0" x2="1" y1="0" y2="0">
      <stop offset="0" stop-color="#FF5A2A" stop-opacity="0.25"/>
      <stop offset="0.45" stop-color="#FF5A2A"/>
      <stop offset="1" stop-color="#FF8B4B"/>
    </linearGradient>
    <clipPath id="chart">
      <rect x="760" y="116" width="390" height="258"/>
    </clipPath>
  </defs>

  <rect width="1200" height="500" rx="20" fill="#090909"/>
  <rect x="0.5" y="0.5" width="1199" height="499" rx="19.5" fill="none" stroke="#272727"/>

  <g transform="translate(72 51) scale(0.25)">
    <rect width="200" height="200" rx="16" fill="#FA5F29"/>
    <path d="M102 167.057V32.0575C102 32.0575 92.609 31.9282 83 32.0575C74.0584 32.1778 69 32.0575 63 32.5575C57.8923 32.9831 53.8195 33.8238 50.5 36.5575C47.1805 39.2911 46 42.275 46 46.5575V112.562C46 113.247 46.0833 113.875 46.2569 114.538C47.6137 119.717 54.0065 144.149 57.2336 156.995C57.4121 157.705 57.6845 158.379 58.0326 159.023C59.9025 162.483 62.2483 167.057 70 167.057H102Z" fill="#282323"/>
    <path d="M97 167.057V32.0575C97 32.0575 106.391 31.9282 116 32.0575C124.942 32.1778 130 32.0575 136 32.5575C141.108 32.9831 145.181 33.8238 148.5 36.5575C151.819 39.2911 153 42.275 153 46.5575V112.562C153 113.247 152.917 113.875 152.743 114.538C151.386 119.717 144.994 144.149 141.766 156.995C141.588 157.705 141.315 158.379 140.967 159.023C139.097 162.483 136.752 167.057 129 167.057H97Z" fill="#282323"/>
    <path d="M108 66a4 4 0 0 0 0 8h49v-8zM128 86a4 4 0 0 0 0 8h29v-8zM108 106a4 4 0 0 0 0 8h49v-8zM132 126a4 4 0 0 0 0 8h25v-8z" fill="#FA5F29"/>
  </g>
  <text x="136" y="84" fill="#F6F6F6" font-family="Arial, Helvetica, sans-serif" font-size="28" font-weight="700" letter-spacing="-1">Braking Lab</text>
  <text x="1128" y="82" fill="#A5A5A5" font-family="Arial, Helvetica, sans-serif" font-size="14" letter-spacing="2" text-anchor="end">AGENT SKILLS</text>
  <path d="M72 110h1056" stroke="#303030"/>

  <g clip-path="url(#chart)">
    <path d="M760 158h390M760 222h390M760 286h390M760 350h390M800 116v258M886 116v258M972 116v258M1058 116v258M1144 116v258" stroke="#292929" stroke-width="1"/>
    <path d="M742 174C796 173 826 166 855 187s43 84 70 100 48-37 79-89 57-69 85-53 43 38 69 30" fill="none" stroke="#4C2419" stroke-width="18" stroke-linecap="round" opacity="0.4"/>
    <path d="M742 174C796 173 826 166 855 187s43 84 70 100 48-37 79-89 57-69 85-53 43 38 69 30" fill="none" stroke="url(#trace)" stroke-width="5" stroke-linecap="round"/>
    <path d="M925 287v63M1004 198v152" stroke="#FF5A2A" stroke-width="1" stroke-dasharray="4 6" opacity="0.55"/>
    <circle cx="925" cy="287" r="6" fill="#FF5A2A"/>
    <circle cx="1004" cy="198" r="6" fill="#FF5A2A"/>
  </g>
  <text x="768" y="395" fill="#777777" font-family="Arial, Helvetica, sans-serif" font-size="13" letter-spacing="1.5">FRENADA / 01</text>

  <text x="72" y="189" fill="#FF5A2A" font-family="Arial, Helvetica, sans-serif" font-size="16" font-weight="700" letter-spacing="2.4">PACK OFICIAL DE SKILLS</text>
  <text x="68" y="259" fill="#F7F7F7" font-family="Arial, Helvetica, sans-serif" font-size="70" font-weight="900" letter-spacing="-4">Race Engineer</text>
  <text x="72" y="308" fill="#FF5A2A" font-family="Arial, Helvetica, sans-serif" font-size="42" font-weight="700" letter-spacing="-1.8">para tu agente favorito.</text>
  <text x="72" y="358" fill="#C5C5C5" font-family="Arial, Helvetica, sans-serif" font-size="22">Pregunta por tus datos de Braking Lab.</text>

  <path d="M72 424h1056" stroke="#303030"/>
  <text x="72" y="457" fill="#A7A7A7" font-family="Arial, Helvetica, sans-serif" font-size="14" letter-spacing="1.3">VUELTAS  ·  SETUPS  ·  PREPARACIÓN DE CARRERA</text>
  <text x="1128" y="457" fill="#FF5A2A" font-family="Arial, Helvetica, sans-serif" font-size="14" letter-spacing="1" text-anchor="end">BRAKINGLAB.COM ↗</text>
</svg>
